HIERARCHY
ROOT Hips
{
	OFFSET 0.00 0.00 0.00
	CHANNELS 6 Xposition Yposition Zposition Xrotation Yrotation Zrotation
	JOINT Spine
	{
		OFFSET 0.00000 1.84593 2.76889
		CHANNELS 3 Xrotation Yrotation Zrotation
		JOINT Spine1
		{
			OFFSET 0.00000 0.64108 3.63577
			CHANNELS 3 Xrotation Yrotation Zrotation
			JOINT Spine2
			{
				OFFSET 0.00000 0.32177 3.67781
				CHANNELS 3 Xrotation Yrotation Zrotation
				JOINT Spine3
				{
					OFFSET 0.00000 0.00000 3.69186
					CHANNELS 3 Xrotation Yrotation Zrotation
					JOINT Neck
					{
						OFFSET 0.00000 -1.38445 9.69113
						CHANNELS 3 Xrotation Yrotation Zrotation
						JOINT Head
						{
							OFFSET 0.00000 -0.88149 4.99918
							CHANNELS 3 Xrotation Yrotation Zrotation
							End Site
							{
								OFFSET 0.00000 0.00000 5.97620
							}
						}
					}
					JOINT RightShoulder
					{
						OFFSET -1.20115 -2.00191 6.48620
						CHANNELS 3 Xrotation Yrotation Zrotation
						JOINT RightArm
						{
							OFFSET -5.96571 -0.00000 0.00000
							CHANNELS 3 Xrotation Yrotation Zrotation
							JOINT RightForeArm
							{
								OFFSET -11.55549 -0.00000 0.00000
								CHANNELS 3 Xrotation Yrotation Zrotation
								JOINT RightHand
								{
									OFFSET -10.15554 -0.00000 0.00000
									CHANNELS 3 Xrotation Yrotation Zrotation
									JOINT RightHandEnd
									{
										OFFSET -2.81846 -0.00000 0.00000
										CHANNELS 3 Xrotation Yrotation Zrotation
										End Site
										{
											OFFSET -2.81846 -0.00000 0.00000
										}
									}
									JOINT RightHandThumb1
									{
										OFFSET -1.12738 -1.87897 -0.75159
										CHANNELS 3 Xrotation Yrotation Zrotation
										End Site
										{
											OFFSET -2.72242 -0.72947 0.00000
										}
									}
								}
							}
						}
					}
					JOINT LeftShoulder
					{
						OFFSET 1.20115 -2.00191 6.48620
						CHANNELS 3 Xrotation Yrotation Zrotation
						JOINT LeftArm
						{
							OFFSET 5.96571 0.00000 0.00000
							CHANNELS 3 Xrotation Yrotation Zrotation
							JOINT LeftForeArm
							{
								OFFSET 11.55549 0.00000 0.00000
								CHANNELS 3 Xrotation Yrotation Zrotation
								JOINT LeftHand
								{
									OFFSET 10.15554 0.00000 0.00000
									CHANNELS 3 Xrotation Yrotation Zrotation
									JOINT LeftHandEnd
									{
										OFFSET 2.81846 0.00000 0.00000
										CHANNELS 3 Xrotation Yrotation Zrotation
										End Site
										{
											OFFSET 2.81846 0.00000 0.00000
										}
									}
									JOINT LeftHandThumb1
									{
										OFFSET 1.12738 -1.87897 -0.75159
										CHANNELS 3 Xrotation Yrotation Zrotation
										End Site
										{
											OFFSET 2.72242 -0.72947 0.00000
										}
									}
								}
							}
						}
					}
				}
			}
		}
	}
	JOINT RightUpLeg
	{
		OFFSET -3.56341 0.00000 -1.04100
		CHANNELS 3 Xrotation Yrotation Zrotation
		JOINT RightLeg
		{
			OFFSET 0.00000 0.00000 -16.70611
			CHANNELS 3 Xrotation Yrotation Zrotation
			JOINT RightFoot
			{
				OFFSET 0.00000 0.00000 -16.32118
				CHANNELS 3 Xrotation Yrotation Zrotation
				JOINT RightToeBase
				{
					OFFSET 0.00000 -5.82844 -2.12138
					CHANNELS 3 Xrotation Yrotation Zrotation
					End Site
					{
						OFFSET 0.00000 -2.88276 0.00000
					}
				}
			}
		}
	}
	JOINT LeftUpLeg
	{
		OFFSET 3.56341 0.00000 -1.04100
		CHANNELS 3 Xrotation Yrotation Zrotation
		JOINT LeftLeg
		{
			OFFSET 0.00000 0.00000 -16.70611
			CHANNELS 3 Xrotation Yrotation Zrotation
			JOINT LeftFoot
			{
				OFFSET 0.00000 0.00000 -16.32118
				CHANNELS 3 Xrotation Yrotation Zrotation
				JOINT LeftToeBase
				{
					OFFSET 0.00000 -5.82844 -2.12138
					CHANNELS 3 Xrotation Yrotation Zrotation
					End Site
					{
						OFFSET 0.00000 -2.88276 0.00000
					}
				}
			}
		}
	}
}
MOTION
Frames: 10
Frame Time: 0.008342
 0.1744 -18.0705 36.0902 3.1795 2.6669 86.4212 7.0896 -1.3271 0.4273 3.1992 -2.2231 0.3002 6.3272 0.8244 6.8479 2.9926 -0.9865 2.5809 4.1697 8.7474 -15.4169 -4.0422 -3.8779 -28.8082 2.1036 0.3544 25.1686 -15.3253 -20.0097 8.6576 -0.0000 -0.0000 41.0842 -76.1137 -6.8965 0.7065 -0.0000 -0.0000 -0.0000 0.0000 0.0000 -0.0000 13.6691 -4.9968 -7.1007 39.0261 41.6939 -48.1580 0.0000 -0.0000 -115.6872 -24.5111 -36.1382 -30.5691 -0.0000 -0.0000 0.0000 -0.0000 0.0000 -0.0000 -18.3970 10.4757 -9.3482 17.1074 -0.0000 0.0000 -0.2368 -7.2855 -9.3583 -3.2071 0.0000 -0.0000 -8.0629 4.7687 13.7872 13.0108 0.0000 0.0000 -10.4134 -2.6616 0.1038 1.7788 0.0000 -0.0000
 0.1572 -18.1306 36.0979 3.3198 2.8728 87.0958 7.1050 -1.3926 0.4420 3.1768 -2.1995 0.2889 6.3718 0.7607 6.5447 2.9848 -0.9402 2.4882 4.2971 8.5573 -15.7057 -4.0770 -3.9333 -28.9392 2.0887 0.2644 24.8564 -16.3183 -19.5539 8.1847 -0.0000 -0.0000 42.2198 -77.1320 -7.2534 1.2619 -0.0000 0.0000 -0.0000 0.0000 0.0000 -0.0000 13.6173 -5.1345 -7.2833 39.7406 40.7625 -48.5571 -0.0000 -0.0000 -114.4042 -23.7546 -37.2316 -31.5366 0.0000 0.0000 0.0000 0.0000 0.0000 0.0000 -18.2153 10.7884 -10.6885 16.6216 0.0000 0.0000 0.4555 -7.2330 -8.8430 -1.8616 -0.0000 -0.0000 -8.1162 4.8342 14.0573 12.6259 0.0000 0.0000 -10.1203 -2.4498 -0.7290 1.8738 0.0000 0.0000
 0.1375 -18.1927 36.1066 3.4307 3.1172 87.7595 7.0801 -1.4669 0.4542 3.1507 -2.1765 0.2756 6.4232 0.6845 6.2131 2.9728 -0.8830 2.3832 4.4268 8.3300 -15.9838 -4.1140 -3.9826 -29.0238 2.0784 0.1724 24.5415 -17.4066 -19.1953 7.7637 -0.0000 -0.0000 43.4461 -77.9442 -7.6005 1.8103 -0.0000 0.0000 0.0000 0.0000 0.0000 -0.0000 13.5591 -5.2742 -7.4657 40.4881 39.8236 -49.0817 -0.0000 0.0000 -112.9557 -23.0759 -38.3732 -32.5316 -0.0000 -0.0000 0.0000 -0.0000 0.0000 -0.0000 -18.1013 11.0432 -11.9589 16.2037 0.0000 0.0000 0.9944 -7.1577 -8.3787 -0.6160 -0.0000 -0.0000 -8.2233 4.8709 14.3323 12.2662 0.0000 -0.0000 -9.8268 -2.2424 -1.5359 1.9754 -0.0000 -0.0000
 0.1209 -18.2573 36.1177 3.4999 3.3236 88.3992 7.0807 -1.5526 0.4654 3.1274 -2.1556 0.2606 6.4795 0.5928 5.8546 2.9572 -0.8169 2.2692 4.5617 8.0691 -16.2456 -4.1548 -4.0194 -29.0576 2.0760 0.0873 24.2254 -18.5750 -18.9414 7.4008 -0.0000 -0.0000 44.7641 -78.5542 -7.9327 2.3543 -0.0000 0.0000 0.0000 0.0000 -0.0000 -0.0000 13.5106 -5.4175 -7.6402 41.2589 38.8847 -49.7344 -0.0000 0.0000 -111.3526 -22.4767 -39.5405 -33.5455 0.0000 0.0000 0.0000 0.0000 0.0000 0.0000 -17.9618 11.2272 -13.1349 15.8294 -0.0000 0.0000 1.3820 -7.0641 -7.9758 0.4615 0.0000 0.0000 -8.2813 4.8699 14.6370 11.9020 -0.0000 -0.0000 -9.5330 -2.0373 -2.3329 2.0781 0.0000 -0.0000
 0.1071 -18.3240 36.1308 3.5279 3.5046 89.0052 7.0917 -1.6445 0.4725 3.1075 -2.1389 0.2420 6.5420 0.4844 5.4741 2.9382 -0.7441 2.1484 4.6999 7.7815 -16.4838 -4.1998 -4.0440 -29.0391 2.0688 0.0044 23.9154 -19.7830 -18.7839 7.0990 -0.0000 -0.0000 46.1767 -78.9861 -8.2477 2.8960 -0.0000 -0.0000 0.0000 -0.0000 0.0000 0.0000 13.4793 -5.5578 -7.8021 42.0374 37.9482 -50.5030 -0.0000 0.0000 -109.6103 -21.9551 -40.7114 -34.5695 0.0000 0.0000 0.0000 -0.0000 -0.0000 -0.0000 -17.8162 11.3384 -14.1883 15.4961 0.0000 0.0000 1.6336 -6.9573 -7.6487 1.3224 0.0000 -0.0000 -8.3064 4.8303 14.9701 11.5370 0.0000 0.0000 -9.2432 -1.8382 -3.1114 2.1769 -0.0000 -0.0000
 0.0937 -18.3920 36.1451 3.5279 3.7044 89.5646 7.0700 -1.7290 0.4729 3.0883 -2.1225 0.2212 6.6125 0.3548 5.0789 2.9162 -0.6649 2.0184 4.8382 7.4732 -16.6892 -4.2477 -4.0565 -28.9694 2.0522 -0.0762 23.6172 -20.9942 -18.7141 6.8646 -0.0000 -0.0000 47.6836 -79.2698 -8.5423 3.4394 0.0000 0.0000 -0.0000 0.0000 0.0000 0.0000 13.4768 -5.6908 -7.9443 42.8030 37.0154 -51.3748 -0.0000 0.0000 -107.7450 -21.5172 -41.8525 -35.6061 0.0000 0.0000 -0.0000 -0.0000 0.0000 -0.0000 -17.7291 11.3913 -15.0882 15.2152 -0.0000 0.0000 1.7708 -6.8441 -7.4068 1.9395 0.0000 -0.0000 -8.3547 4.7650 15.3182 11.1809 -0.0000 -0.0000 -8.9581 -1.6490 -3.8481 2.2661 -0.0000 -0.0000
 0.0858 -18.4614 36.1612 3.4934 3.8496 90.0699 7.0808 -1.8074 0.4676 3.0764 -2.1163 0.1999 6.6863 0.2159 4.6653 2.8924 -0.5885 1.8954 4.9798 7.1554 -16.8682 -4.3005 -4.0563 -28.8497 2.0416 -0.1434 23.3233 -22.1856 -18.7208 6.6964 -0.0000 -0.0000 49.2904 -79.4418 -8.8273 3.9841 -0.0000 0.0000 -0.0000 0.0000 0.0000 0.0000 13.4995 -5.8158 -8.0755 43.5568 36.0864 -52.3425 0.0000 -0.0000 -105.7722 -21.1179 -42.9947 -36.6186 -0.0000 -0.0000 0.0000 -0.0000 -0.0000 0.0000 -17.6042 11.3781 -15.8359 14.9567 0.0000 -0.0000 1.8228 -6.7326 -7.2467 2.3110 0.0000 0.0000 -8.3312 4.6671 15.6973 10.8122 -0.0000 -0.0000 -8.6827 -1.4672 -4.5615 2.3446 -0.0000 0.0000
 0.0792 -18.5311 36.1775 3.4457 4.0105 90.5109 7.0601 -1.8625 0.4547 3.0658 -2.1115 0.1750 6.7651 0.0623 4.2489 2.8669 -0.5110 1.7666 5.1198 6.8281 -17.0081 -4.3535 -4.0431 -28.6848 2.0187 -0.2112 23.0459 -23.3009 -18.7843 6.6004 -0.0000 0.0000 50.9902 -79.5445 -9.1001 4.5369 -0.0000 0.0000 0.0000 0.0000 0.0000 0.0000 13.5558 -5.9294 -8.1853 44.2766 35.1587 -53.3873 0.0000 -0.0000 -103.7083 -20.7891 -44.0772 -37.6389 0.0000 -0.0000 -0.0000 -0.0000 0.0000 0.0000 -17.5374 11.3249 -16.4148 14.7406 0.0000 0.0000 1.8171 -6.6293 -7.1668 2.4529 -0.0000 0.0000 -8.3263 4.5580 16.0780 10.4505 -0.0000 0.0000 -8.4169 -1.2966 -5.2158 2.4089 0.0000 0.0000
 0.0774 -18.6018 36.1940 3.3761 4.1384 90.8885 7.0509 -1.9060 0.4326 3.0599 -2.1043 0.1526 6.8474 -0.1027 3.8231 2.8425 -0.4375 1.6450 5.2564 6.4978 -17.1138 -4.4071 -4.0177 -28.4800 1.9869 -0.2748 22.7775 -24.3158 -18.8941 6.5725 -0.0000 -0.0000 52.7838 -79.6053 -9.3620 5.0903 -0.0000 0.0000 0.0000 0.0000 -0.0000 -0.0000 13.6334 -6.0346 -8.2817 44.9691 34.2286 -54.5019 0.0000 0.0000 -101.5711 -20.4962 -45.1198 -38.6201 -0.0000 0.0000 -0.0000 0.0000 -0.0000 0.0000 -17.4569 11.2220 -16.8466 14.5372 0.0000 0.0000 1.7863 -6.5400 -7.1559 2.4027 -0.0000 0.0000 -8.2819 4.4258 16.4595 10.0924 0.0000 -0.0000 -8.1723 -1.1369 -5.8213 2.4593 0.0000 0.0000
 0.0785 -18.6722 36.2097 3.3058 4.2604 91.1963 7.0317 -1.9211 0.4032 3.0555 -2.0971 0.1279 6.9305 -0.2709 3.4018 2.8187 -0.3685 1.5252 5.3899 6.1676 -17.1857 -4.4580 -3.9812 -28.2421 1.9459 -0.3432 22.5223 -25.1997 -19.0247 6.6132 -0.0000 0.0000 54.6599 -79.6670 -9.6299 5.6507 -0.0000 0.0000 0.0000 -0.0000 0.0000 -0.0000 13.7311 -6.1278 -8.3667 45.6234 33.2883 -55.6720 0.0000 -0.0000 -99.3687 -20.2454 -46.1047 -39.5791 0.0000 0.0000 0.0000 0.0000 0.0000 0.0000 -17.4015 11.0969 -17.1391 14.3588 0.0000 0.0000 1.7491 -6.4705 -7.1963 2.2095 0.0000 0.0000 -8.2321 4.2932 16.8173 9.7432 0.0000 0.0000 -7.9451 -0.9872 -6.3515 2.4988 -0.0000 0.0000
